<?xml version="1.0" encoding="UTF-8" standalone="no"?>
<svg
   xmlns:dc="http://purl.org/dc/elements/1.1/"
   xmlns:cc="http://creativecommons.org/ns#"
   xmlns:rdf="http://www.w3.org/1999/02/22-rdf-syntax-ns#"
   xmlns:svg="http://www.w3.org/2000/svg"
   xmlns="http://www.w3.org/2000/svg"
   xmlns:sodipodi="http://sodipodi.sourceforge.net/DTD/sodipodi-0.dtd"
   xmlns:inkscape="http://www.inkscape.org/namespaces/inkscape"
   version="1.0"
   width="2562.4661pt"
   height="1340.7578pt"
   viewBox="0 0 2562.4661 1340.7578"
   preserveAspectRatio="xMidYMid meet"
   id="svg48"
   sodipodi:docname="Captura de pantalla de 2018-02-13 00:25:35.png.svg"
   inkscape:version="0.92.2 (unknown)">
  <defs
     id="defs52" />
  <sodipodi:namedview
     pagecolor="#ffffff"
     bordercolor="#666666"
     borderopacity="1"
     objecttolerance="10"
     gridtolerance="10"
     guidetolerance="10"
     inkscape:pageopacity="0"
     inkscape:pageshadow="2"
     inkscape:window-width="1280"
     inkscape:window-height="776"
     id="namedview50"
     showgrid="false"
     inkscape:zoom="0.11412701"
     inkscape:cx="1177.0091"
     inkscape:cy="464.13895"
     inkscape:window-x="0"
     inkscape:window-y="24"
     inkscape:window-maximized="1"
     inkscape:current-layer="svg48"
     inkscape:object-paths="true"
     inkscape:snap-intersection-paths="true"
     inkscape:snap-bbox="true"
     inkscape:bbox-paths="true"
     inkscape:bbox-nodes="true"
     inkscape:snap-bbox-edge-midpoints="true"
     inkscape:snap-bbox-midpoints="true"
     inkscape:snap-smooth-nodes="true"
     fit-margin-top="0"
     fit-margin-left="0"
     fit-margin-right="0"
     fit-margin-bottom="0" />
  <metadata
     id="metadata2">
Created by potrace 1.11, written by Peter Selinger 2001-2013
<rdf:RDF>
  <cc:Work
     rdf:about="">
    <dc:format>image/svg+xml</dc:format>
    <dc:type
       rdf:resource="http://purl.org/dc/dcmitype/StillImage" />
    <dc:title></dc:title>
  </cc:Work>
</rdf:RDF>
</metadata>
  <rect
     style="color:#000000;clip-rule:nonzero;display:inline;overflow:visible;visibility:visible;opacity:1;isolation:auto;mix-blend-mode:normal;color-interpolation:sRGB;color-interpolation-filters:linearRGB;solid-color:#000000;solid-opacity:1;vector-effect:none;fill:#ffffff;fill-opacity:1;fill-rule:nonzero;stroke:none;stroke-width:0.45807657;stroke-linecap:butt;stroke-linejoin:miter;stroke-miterlimit:4;stroke-dasharray:none;stroke-dashoffset:0;stroke-opacity:1;marker:none;marker-start:none;marker-mid:none;marker-end:none;paint-order:stroke fill markers;color-rendering:auto;image-rendering:auto;shape-rendering:auto;text-rendering:auto;enable-background:accumulate"
     id="rect884"
     width="2562.4661"
     height="1340.7578"
     x="0"
     y="0" />
  <path
     id="path42"
     style="fill:#000000;stroke:none;stroke-width:0.1"
     d="m 1451.0519,922.28679 c -2,2.4 -2.1,219.20001 -0.1,220.80001 0.9,0.8 8,1.3 21.2,1.5 19.3,0.3 19.8,0.3 22,-1.9 l 2.2,-2.2 -0.8,-28.1 c -0.4,-15.5 -0.9,-64.3 -1,-108.5 -0.2,-76.40001 -0.3,-80.50001 -2.1,-81.80001 -2.8,-2 -39.7,-1.9 -41.4,0.2 z m 258,-7.5 c -16.2,1.7 -28.5,7.8 -42.3,20.9 -11.7,11.1 -20,24.4 -26.1,41.9 -7,20.3 -8.8,31.20001 -8.9,55.90001 -0.1,22.1 1.8,35.9 7.3,52.4 6.4,19.2 13.9,31.6 26.2,43.5 6.6,6.5 10.2,9 17.8,12.8 11.8,5.7 20.6,7.6 35.9,7.6 32.6,0 54.9,-14.9 69.7,-46.7 4.7,-9.9 8.4,-20.2 8.4,-23.2 0,-3.7 -1.9,-4.1 -19.6,-4.1 h -17.2 l -2.9,3.7 c -1.6,2.1 -3.9,5.5 -5.2,7.5 -3.2,5.4 -12.7,13.1 -19.4,15.8 -5.3,2.1 -6.9,2.2 -16.3,1.7 -12.4,-0.7 -17.2,-2.5 -24.4,-9.3 -6.7,-6.2 -11.5,-16.5 -14.1,-29.6 -2.5,-13.1 -2.5,-16.3 0.3,-18.2 2,-1.4 9.5,-1.6 61.4,-1.6 50.1,0 59.3,-0.2 60.3,-1.4 1.8,-2.1 1.5,-24.4 -0.5,-37.4 -4.1,-28.00001 -12.7,-49.70001 -26.8,-67.60001 -10.5,-13.1 -32.3,-24.6 -48.1,-25.1 -4.4,-0.2 -11.4,0 -15.5,0.5 z m 14.6,45.4 c 8.7,1.4 12,3.2 17.2,9 9.8,11.2 17,35.50001 11.3,38.50001 -1,0.6 -16.8,1.3 -36.8,1.7 -34.9,0.7 -35,0.7 -37.1,-1.4 -2.7,-2.7 -2.7,-4 -0.3,-14.00001 2.2,-9.2 3.9,-12.7 9.7,-20.3 5.3,-6.9 9.9,-10.5 16.7,-12.9 6.3,-2.3 8.9,-2.3 19.3,-0.6 z m -141.8,-123 c -8.9,3.1 -12.6,5.6 -19.2,12.6 -11.9,12.9 -17.5,30.4 -17.6,54.7 0,14.2 0,14.3 -2.5,15.9 -2.2,1.4 -4.2,1.6 -12.3,1.1 -5.3,-0.4 -10.3,-0.3 -11,0.2 -0.9,0.5 -1.4,5.5 -1.9,17.7 -0.7,21.2 -1.2,20.4 12.7,20.4 5.5,0 11.1,0.5 12.5,1.2 l 2.5,1.1 v 90.30001 c 0,70.3 0.3,90.5 1.2,91 0.7,0.5 10.4,1 21.6,1.2 16.6,0.4 20.6,0.2 21.3,-0.9 0.5,-0.8 0.9,-41.3 0.9,-91.3 0,-62.40001 0.3,-90.30001 1,-91.00001 0.6,-0.6 7.3,-1.3 15.5,-1.6 7.9,-0.3 14.7,-0.9 15.1,-1.3 1.2,-1.2 1.7,-34 0.5,-35.7 -0.8,-1.2 -3.7,-1.5 -14.6,-1.6 -17.1,-0.1 -17.5,-0.4 -17.5,-11.1 0,-4.1 0.7,-10.6 1.6,-14.6 2.8,-12.4 9.5,-16.5 24.6,-15.3 7,0.6 7.8,0.5 8.8,-1.3 0.6,-1.2 1,-9.8 1,-21.4 0,-17.5 -0.2,-19.5 -1.8,-21 -1.6,-1.5 -4.4,-1.7 -18.8,-1.6 -15,0 -17.7,0.3 -23.6,2.3 z m -324.8,-0.4 c -2,2 -2,3.3 -2,153.7 0,94.00001 0.4,152.40001 1,153.30001 0.8,1.3 10.8,1.5 82.7,1.1 45,-0.2 82.1,-0.5 82.6,-0.8 0.4,-0.2 0.7,-12.4 0.7,-27.1 0,-24.4 -0.2,-26.8 -1.7,-27.7 -1.2,-0.7 -16.9,-0.8 -47.3,-0.2 -44.6,0.8 -60.8,0.6 -64.2,-0.8 -0.9,-0.4 -2.1,-1.9 -2.6,-3.4 -1,-2.9 0.2,-214.40001 1.3,-233.90001 0.7,-10.9 0.6,-11.4 -1.6,-13.8 l -2.2,-2.4 h -22.4 c -21,0 -22.4,0.1 -24.3,2 z m -182.3,-0.2 c -2.2,2.4 -2.2,1.5 -0.7,58 0.9,34.8 1,49.6 0.3,50.3 -2,2 -5.2,-0.2 -9.8,-6.7 -13.7,-19.1 -39,-27.2 -61.8,-19.7 -20.00003,6.6 -33.10003,20.6 -45.80003,48.8 -3.7,8.2 -8.7,31.9 -10.1,48.00001 -0.8,9.9 -0.8,17.5 0.1,32 1.8,28.3 5.8,44.6 15.9,65.4 3.8,7.8 6.3,11.2 13.9,19.1 10.3,10.8 16.4,14.6 28.30003,17.9 8.9,2.5 23.8,2.8 31.9,0.6 12.7,-3.3 23.8,-11.6 31,-23 6.4,-10.2 8.4,-9 8.2,4.9 -0.3,14.4 -1,14 23,13.7 23.7,-0.3 23.1,0 21.8,-11 -1.2,-9.3 -0.7,-289.90001 0.5,-292.30001 0.6,-1.4 0,-2.5 -2.4,-4.8 l -3.2,-3 h -19.8 c -17.7,0 -19.9,0.2 -21.3,1.8 z m -25.5,127.5 c 11.1,6.5 21,22.3 24.2,38.50001 2.3,12.1 2.2,47.3 -0.3,60.2 -4.2,21.6 -12.2,34.7 -25.4,41.4 -5.3,2.6 -6.4,2.8 -14.5,2.4 -10.8,-0.5 -14.7,-2.4 -23.4,-11.1 -13.40003,-13.4 -18.80003,-32.4 -18.80003,-65.9 0,-24.6 4.3,-40.90001 14.40003,-54.10001 5.1,-6.8 7.4,-8.8 12.7,-11.6 6.3,-3.3 6.5,-3.3 16.6,-2.8 8.6,0.4 11,0.9 14.5,3 z m -180.20003,-127.8 c -1.8,2.2 -2.1,305.90001 -0.3,308.40001 1,1.4 3.9,1.6 21.2,1.6 17.4,0 20.2,-0.2 21.7,-1.7 1.5,-1.5 1.7,-4.1 1.3,-24.5 -0.6,-32.5 -0.2,-181.50001 0.6,-235.50001 l 0.6,-45.7 -3.3,-2.1 c -3,-1.8 -5,-2 -21.9,-2 -15.6,0 -18.9,0.3 -19.9,1.5 z m 614.00003,-2.3 c -2.1,0.6 -8.6,0.8 -16.3,0.5 -7.2,-0.4 -13.8,-0.2 -15.2,0.3 l -2.5,1 v 22.5 c 0,21.5 0.1,22.6 2.1,24.6 2,2 2.9,2.1 21.8,1.7 14.9,-0.2 20.2,-0.6 21.4,-1.7 1.5,-1.2 1.7,-4.1 1.7,-23.7 0,-21.7 -0.1,-22.4 -2.2,-24.4 -2.4,-2.2 -5.3,-2.4 -10.8,-0.8 z m -784.50003,-3.8 c -25.6,3.9 -50,20.3 -68.9,46.4 -11.2,15.4 -22.2,44.5 -26.6,70.2 -5.3,30.7 -5.4,71.40001 -0.4,91.50001 0.8,3.3 2.6,11 3.9,17 1.3,6.1 3.4,13.5 4.8,16.5 1.4,3 3.4,8 4.5,11 2.3,6.6 11.7,22.3 18.2,30.5 6.5,8.2 18.3,19.3 25.5,24.2 8.7,5.9 15.5,9.1 26.1,12.3 13.6,4.2 20.5,5.2 30.3,4.5 26.7,-1.9 37.4,-5.2 55.1,-17 9.5,-6.3 23.2,-19.4 28.4,-27.1 1.4,-2.2 3.7,-5.5 4.9,-7.4 8.4,-12.5 14.1,-26.3 19.3,-47 1.9,-7.4 3.9,-15.1 4.3,-17 3.9,-14.8 4.7,-58.30001 1.7,-84.50001 -3.2,-27.7 -13,-55.5 -27.4,-78 -6,-9.4 -24.8,-27.9 -33.7,-33.2 -9.3,-5.6 -24.7,-11.8 -32.7,-13.2 -8.2,-1.4 -26.8,-1.2 -37.3,0.3 z m 34.2,57 c 11.8,3.4 19.4,9.4 30,23.8 5.9,7.9 12.9,24.8 14.9,35.7 0.7,4.2 1.9,10.7 2.6,14.6 2,11.6 1.7,53.90001 -0.5,66.00001 -4.6,25.2 -13.1,43.1 -27,56.3 -7.3,7 -13.5,10.2 -25.2,13.2 -19.7,5 -34.1,0.6 -50.1,-15.4 -7.4,-7.5 -9.8,-10.7 -13.3,-17.8 -12.1,-25 -16.2,-53.5 -13.1,-92.40001 2.5,-31.4 11,-54.1 25.9,-69.1 9.9,-10 12.6,-11.9 20.7,-14.8 9.7,-3.4 23.7,-3.5 35.1,-0.1 z m -291.8,-87.9 c -0.3,0.3 -25.7,0.6 -56.3,0.7 l -55.8,0.3 -37.7,38 c -20.7,20.9 -63.1,63.3 -94.3,94.2 -31.1,30.9 -57.4,57.3 -58.3,58.7 -1.6,2.4 -1.6,2.7 0.7,5.3 1.2,1.6 44.2,44.50001 95.3,95.50001 l 93,92.6 51.5,0.7 c 28.3,0.3 64.3,0.5 80,0.3 l 28.5,-0.3 0.3,-2.6 c 0.2,-2 -0.6,-3.4 -3.5,-5.9 -8,-6.9 -50.8,-48.5 -99.3,-96.5 -27.8,-27.5 -58.9,-58.1 -69.3,-67.9 -21.6,-20.70001 -21.7,-20.90001 -14.1,-27.30001 9.6,-7.9 23.6,-21.4 83.4,-80.2 33.8,-33.4 70.9,-69.6 82.3,-80.6 17.6,-16.9 20.7,-20.3 20.5,-22.4 l -0.3,-2.6 -23.1,-0.3 c -12.7,-0.1 -23.3,0 -23.5,0.3 z m 1158.40003,-492.3 c -0.4,0.7 -0.7,55.3 -0.5,121.3 0.3,104.6 0.5,120.2 1.8,121.5 1.2,1.2 5.4,1.6 22.5,1.8 18.9,0.3 21.3,0.2 23,-1.4 1.8,-1.7 1.9,-4.8 1.9,-120.8 0,-65.5 -0.4,-119.6 -0.8,-120.2 -1.9,-2.9 -5.6,-3.4 -26.1,-3.4 -15.7,0 -21.2,0.3 -21.8,1.2 z m -373.8,-2.2 c -22.2,0.5 -24.8,1.1 -26.5,5.4 -0.5,1.3 -2,9.3 -3.5,17.7 -1.4,8.5 -3.7,20.6 -5,26.9 -1.3,6.3 -3.8,18.9 -5.5,28 -1.7,9.1 -3.9,20.5 -5,25.5 -1,4.9 -3.7,18.4 -6,30 -5.3,27 -6.5,31.5 -8.9,31.5 -1,0 -2.4,-0.6 -3,-1.4 -1.2,-1.5 -6.9,-27.7 -9.6,-44.2 -0.8,-5.5 -2.4,-14 -3.5,-18.9 -1,-5 -3.1,-16.3 -4.5,-25.1 -1.4,-8.9 -3,-17.7 -3.5,-19.5 -0.6,-1.9 -2,-9.7 -3.1,-17.4 -3.7,-25.1 -5.5,-32.7 -8.4,-35.3 -2.5,-2.1 -3.3,-2.2 -23.6,-2.2 -12.1,0 -21.8,0.4 -22.9,1 -2.1,1.1 -2.6,3.2 -6.5,28 -3.4,21 -5.9,35 -12,68 -0.9,4.7 -2.3,12.5 -3.1,17.5 -0.8,4.9 -1.9,11 -2.3,13.5 -0.5,2.5 -1.4,7.2 -2,10.5 -2.3,12.7 -4.2,21.9 -4.8,22.9 -1.5,2.7 -3.6,4.4 -4.8,3.9 -1.7,-0.6 -4,-7.5 -5.5,-16.8 -0.6,-3.9 -2.5,-12.6 -4.1,-19.5 -1.6,-6.9 -2.9,-13.7 -2.9,-15.1 0,-2.2 -2.5,-14.8 -5.9,-29.9 -0.5,-2.5 -1.7,-9.2 -2.6,-15 -0.9,-5.8 -2.8,-15.2 -4.1,-21 -1.4,-5.8 -3.4,-16.7 -4.5,-24.3 -2.1,-14.4 -3.6,-19.4 -6.9,-22.7 -1.9,-1.9 -3.4,-2 -22.20003,-1.9 -11.2,0 -22.1,0.3 -24.3,0.7 -3.4,0.6 -4,1.1 -4.3,3.5 -0.2,1.5 0.4,5 1.3,7.7 0.9,2.7 2.9,10 4.5,16.2 1.6,6.2 5.2,20.3 8,31.3 2.8,11 6,23.9 7,28.8 1,4.8 3.1,12.9 4.5,18 1.5,5 3.3,12.3 4,16.2 0.7,3.8 2.9,13.1 4.8,20.5 1.9,7.4 3.8,15.3 4.1,17.5 0.4,2.2 1.80003,8 3.20003,13 1.3,4.9 4.9,20.5 8,34.5 3.1,14 6,26.2 6.5,27.2 0.5,0.9 0.9,2.8 0.9,4.1 0,1.3 0.9,3.6 2.1,5.1 l 2,2.6 h 24.4 c 20.2,0 24.5,-0.2 25.5,-1.5 0.7,-0.8 2.3,-7.4 3.7,-14.7 1.3,-7.3 3.1,-16.7 4,-20.8 0.9,-4 1.9,-9.9 2.3,-13 0.4,-3 1.4,-8.9 2.3,-13 0.8,-4.1 2,-10.9 2.7,-15 0.6,-4.1 1.6,-9.1 2,-11 0.5,-1.9 1.4,-6.2 1.9,-9.5 0.6,-3.3 1.9,-10.5 3,-16 1.1,-5.5 2.2,-11.4 2.5,-13 0.3,-1.7 1.1,-5.3 1.6,-8 0.6,-2.8 1.5,-8.6 2,-13 0.9,-9.2 2.5,-13.2 5.2,-14.1 4.3,-1.3 6.6,3.6 8.8,18.6 1.9,12.7 3,19.2 5,28 1,4.7 2.3,11 2.9,14 4.4,23.6 7.7,41 10.6,55.5 1.9,9.3 3.9,21 4.5,26 1.3,10.4 3.2,16.5 6.1,19.1 2,1.8 3.8,1.9 25.3,1.6 20,-0.3 23.3,-0.6 24.7,-2 1.7,-1.8 4.1,-10.1 8.4,-29.2 7.4,-32.7 11.2,-48.9 18.5,-78 3.2,-12.9 7.9,-31.8 10.4,-42 2.5,-10.2 5.3,-20.9 6.2,-23.8 0.8,-2.9 1.9,-7.4 2.3,-10 0.8,-4.6 8.3,-33.8 11.7,-45.7 0.9,-3.3 1.9,-8.1 2.1,-10.7 0.5,-4.4 0.3,-4.9 -2.2,-5.8 -1.4,-0.5 -2.7,-0.9 -2.8,-0.8 -0.1,0.1 -9.6,0.5 -21.2,0.8 z m 651.3,-4 c -14.8,3.3 -23.9,7.9 -36.1,17.9 -17,13.9 -29.5,34.2 -35.9,58.1 -5.7,21.1 -6.8,30.2 -6.8,55 0,18.7 0.3,23.2 2.4,34.5 4.2,22.4 9.5,36.3 19.8,52.1 13.1,20.1 31.9,33.3 53.8,37.9 15.3,3.2 38.6,1.3 52,-4.2 7.6,-3.2 22.4,-12.8 26,-16.9 10.3,-12 18.7,-27.2 24.6,-44.3 4.8,-14 5.3,-13.5 -17.3,-13.9 -10,-0.1 -19.2,0.2 -20.5,0.7 -1.5,0.6 -3.8,3.3 -5.8,6.7 -4.8,8.5 -13.6,16.9 -21.7,20.6 -11.8,5.3 -29.7,4.9 -39.2,-0.9 -9,-5.6 -18.6,-18.4 -21,-28 -0.5,-2.1 -1.7,-6.3 -2.5,-9.3 -2.3,-8.3 -2.5,-19.3 -0.3,-21.8 1.9,-2.1 -5.3,-2 102.8,-1 23.9,0.2 29.9,0 31.2,-1.1 1.4,-1.1 1.7,-3.5 1.7,-15.5 -0.1,-46.4 -16.7,-89.6 -42.5,-110.6 -13.6,-11 -21.5,-14.2 -42.8,-17 -9.9,-1.3 -12.4,-1.2 -21.9,1 z m 27.7,49.2 c 5.8,1.9 15.6,11.5 19.8,19.6 3.9,7.3 7.1,17.9 8.2,26.5 0.6,4.7 0.4,5.5 -1.2,6.3 -1,0.5 -19.6,1 -41.4,1.2 -45.7,0.4 -42.9,0.9 -42.9,-8.8 0,-3.3 0.4,-6.9 0.9,-8.2 0.5,-1.3 1.4,-4.1 2.1,-6.2 3,-9.3 13.4,-23 20.7,-27.3 2.4,-1.4 6.7,-3.1 9.6,-3.9 6,-1.5 18.3,-1.1 24.2,0.8 z m -1068.60003,-49.7 c -6.8,1.4 -18.6,5.7 -22.9,8.4 -5.7,3.6 -17.7,13.1 -21.1,16.7 -4.7,5 -15.2,20 -17.9,25.6 -3.2,6.6 -7.5,18.3 -10.4,28.3 -4.2,14.6 -5.8,29.6 -5.7,52 0.1,28.2 3.2,47.5 10.6,65.5 7.7,18.9 14.8,29.6 26.4,40.1 9.3,8.4 17.5,13.3 29.1,17.1 8.9,3 10.6,3.2 26.3,3.6 14.8,0.3 17.8,0.1 24.6,-1.7 11,-3 17.6,-5.9 25.8,-11.4 14.4,-9.6 26.5,-27.1 34.8,-49.9 4,-11.2 4.3,-14.7 1.5,-17.3 -1.8,-1.6 -2.5,-1.7 -5.4,-0.7 -1.9,0.7 -9.2,1.2 -18.4,1.2 h -15.1 l -5.2,7.7 c -9.3,13.8 -19.7,21.7 -30.7,23.3 -21.7,3 -39.3,-5.8 -48.5,-24.5 -5.7,-11.4 -9.2,-33.3 -6.3,-38.5 l 1.4,-2.5 h 66 c 56.7,0 66.1,-0.2 67.7,-1.5 1.6,-1.3 1.7,-2.9 1.2,-18 -1,-28.6 -7.3,-55.5 -18,-77 -3.9,-7.9 -13.5,-20.5 -21.4,-28.1 -6.2,-6.1 -18.9,-13.9 -26.3,-16.3 -11.6,-3.7 -29.5,-4.6 -42.1,-2.1 z m 28.3,49.6 c 7.8,3 12.8,6.8 17.3,13.2 7.4,10.6 14.5,34.3 11.6,38.7 -0.9,1.3 -6.9,1.5 -42.2,1.8 -48.2,0.3 -45.6,0.9 -44.4,-9.3 0.3,-3.3 1.1,-7.8 1.7,-10 4,-15.3 18.1,-31.3 31.3,-35.6 1.1,-0.4 5.9,-0.7 10.7,-0.8 6.5,-0.1 9.9,0.4 14,2 z m 883.90003,-136.5 c -13.3,3.7 -18.2,6.6 -25.8,15 -13.7,15.2 -18,28.2 -19.2,58.5 -0.4,10.6 -1,16.1 -1.9,17.2 -1.4,1.7 -8.8,2.7 -21.2,3 l -7.5,0.2 -0.3,19.7 c -0.2,18 -0.1,19.8 1.5,20.6 3.4,1.8 10.1,2.3 16,1.3 7.7,-1.4 11.7,-0.2 13.2,4.1 1.4,3.9 1.4,61.2 0.1,137.7 -0.9,49.9 -0.8,56.7 0.5,58.8 1.5,2.3 1.6,2.3 24,2.3 h 22.5 l 1.6,-2.5 c 1.5,-2.3 1.5,-9.7 0.8,-86.7 -1,-98.1 -1,-107.4 0.5,-111.1 l 1.1,-2.7 h 16.5 c 14.8,0 16.6,-0.2 17.3,-1.8 0.4,-0.9 0.7,-9.8 0.7,-19.8 0,-13.6 -0.3,-18.5 -1.3,-19.7 -1.1,-1.3 -2.8,-1.5 -9.6,-1 -10.3,0.7 -21.1,-0.4 -23.1,-2.4 -1.2,-1.1 -1.5,-4.2 -1.5,-13.7 0,-11.8 0.1,-12.6 3.1,-18.5 4.5,-8.9 6.8,-10.1 19.9,-10.1 11.6,0 14.6,-0.5 15.4,-2.6 0.3,-0.7 0.8,-10.3 1.2,-21.2 l 0.7,-19.8 -2.4,-2.6 c -2.2,-2.4 -3.3,-2.6 -15.9,-3.7 -17,-1.4 -16.8,-1.4 -26.9,1.5 z m -148.8,-1.4 c -0.4,0.7 -0.9,12.6 -1.1,26.4 -0.3,22.7 -0.2,25.2 1.4,26.5 1.4,1.1 6.2,1.4 23.5,1.5 11.9,0.1 22.3,-0.2 23,-0.6 1.9,-1.3 2.7,-9.9 2.8,-30.8 0.1,-19.2 0.1,-19.3 -2.4,-21.7 l -2.4,-2.5 h -22 c -16.5,0 -22.2,0.3 -22.8,1.2 z m -210.9,0.2 -3.1,1.4 -0.6,16.8 c -0.9,21.5 -0.9,317.6 -0.1,319.8 0.3,0.9 1.1,1.6 1.8,1.6 2.8,0.1 102.2,-0.1 138.3,-0.3 37.2,-0.2 40.4,-0.3 42,-2 1.6,-1.6 1.8,-4.1 1.7,-29.4 -0.1,-25.9 -0.2,-27.7 -2,-29 -1.6,-1.2 -10.7,-1.3 -61.9,-0.8 l -60,0.7 -2.9,-2.8 -2.9,-2.7 0.9,-13.6 c 0.4,-7.5 0.8,-55.7 0.9,-107.1 0,-51.4 0.5,-106.1 0.9,-121.5 0.8,-27.9 0.8,-28 -1.3,-30.3 -2.1,-2.2 -2.6,-2.2 -25.4,-2.2 -17.2,0.1 -24,0.4 -26.3,1.4 z m -890.20003,0.3 c -1.2,1.9 -1.4,8.4 -1.1,42 0.4,66.6 -0.1,198.1 -1.1,247.3 -0.8,45.5 -0.8,46.5 1.1,48.5 1.9,1.9 3.1,2 25.1,1.8 21.3,-0.2 23.3,-0.4 25.1,-2.1 2.3,-2.3 2.2,-1.8 1.3,-83.2 -0.4,-30.5 -0.9,-72.6 -1.1,-93.5 -0.2,-20.9 -0.6,-39.4 -1,-41.1 -1,-4.7 0.9,-7.6 4.8,-7.2 3.6,0.3 5.1,2.8 12.2,19.3 2.1,4.9 5.5,12.4 7.5,16.5 2.1,4.1 4.9,10 6.3,13 11.4,24.8 15.8,34.3 21.7,46.5 3.7,7.7 8,16.9 9.5,20.5 1.5,3.6 5.4,11.9 8.8,18.5 3.3,6.6 8.3,17.2 11.2,23.5 2.9,6.3 8.5,18.5 12.5,27 11.9,25.6 12.7,27.3 14,31.4 0.7,2.2 2.9,5.4 4.9,7.3 l 3.6,3.3 h 25.7 c 25.6,0 25.8,0 27.1,-2.3 1.1,-1.8 1.3,-8.9 0.7,-40.2 -0.8,-45.9 0.7,-256.9 1.9,-278 0.8,-13.5 0.7,-15.2 -0.9,-17.5 -2.3,-3.3 -8,-3.9 -31.4,-3.2 -20.2,0.6 -21.1,0.9 -21.8,8.4 -0.4,4.4 0.4,62.8 2.3,156 1.1,54.9 1,58.9 -0.6,61.4 -1.3,2.1 -2.2,2.5 -4.3,1.9 -3.7,-0.8 -5.7,-3.5 -7.8,-10.2 -0.9,-3.2 -4.8,-12.2 -8.6,-20 -3.7,-7.9 -6.8,-14.6 -6.8,-14.9 0,-0.4 -2.2,-5.2 -4.9,-10.8 -2.7,-5.6 -6.3,-13.3 -8.1,-17.1 -1.8,-3.9 -5,-10.8 -7.2,-15.5 -2.3,-4.7 -5.3,-11.2 -6.8,-14.5 -1.6,-3.3 -6.7,-14 -11.4,-23.8 -4.7,-9.8 -8.6,-18.1 -8.6,-18.4 0,-0.3 -2.2,-5.2 -4.9,-10.7 -2.8,-5.6 -10.7,-22.5 -17.6,-37.5 -7,-15.1 -13.4,-28.5 -14.4,-29.7 -3.4,-4.6 -4.3,-4.7 -30.5,-4.8 -24.7,-0.1 -24.9,-0.1 -26.4,2.1 z m 1591.50003,-36.3 c -0.8,2 3.9,9.3 8,12.6 4.7,3.7 30.9,29.4 106.6,104.6 60.5,60.3 72.7,72.8 72.7,75.1 0,2.1 -1.9,4.4 -8.7,10.7 -9.1,8.3 -44.6,43.3 -129.6,127.5 -31.7,31.4 -49.7,50 -49.5,51 0.3,1.5 7.2,1.6 77.3,1.6 42.4,0 78.1,-0.4 79.5,-0.8 2.7,-0.9 189.3,-188 189.8,-190.4 0.2,-0.7 -41.7,-43.4 -94.6,-96.3 l -94.9,-95 h -4.9 c -27.6,0.1 -122.5,-1 -135,-1.6 -14.7,-0.6 -16.1,-0.5 -16.7,1 z M 83.551867,24.886789 c -7.1,0.5 -14,1.3 -15.3,1.9 -1.3,0.5 -3.3,1 -4.6,1 -1.2,0 -3.8,1.2 -5.7,2.6 -1.9,1.4 -5,3.4 -6.9,4.4 -9.3,4.8 -22.8,22.2 -24.4,31.3 -0.4,2.1 -1.6,5.8 -2.6,8.2 -1.8,4.2 -1.9,14.4 -2.3,354.700001 -0.5,348.3 -2.1,707.90001 -3.1,709.60001 -0.3,0.5 -0.6,29.4 -0.7,64.3 -0.1,46.3 0.2,65.3 1.1,70.4 1.3,7.6 6.9,20.6 12,28 6.7,9.7 22.3,20.1 33.6,22.4 4.7,1 42.300003,1.2 176.000003,0.8 93.4,-0.3 202.1,-0.8 241.4,-1.1 39.3,-0.3 225.6,-1 414,-1.6 188.40003,-0.6 427.80003,-1.5 532.00003,-2 104.2,-0.6 302,-1 439.5,-1 137.5,0 333.5,-0.5 435.5,-1 l 185.5,-1.1 8,-2.6 c 10,-3.1 15.3,-6.5 23.2,-14.5 7,-7.3 11.6,-14.2 16.4,-24.8 l 3.4,-7.5 0.1,-302.50001 c 0.1,-166.4 0.6,-422 1,-568 1,-303.700001 0.9,-276 0.5,-296 -0.4,-20.900001 -1.9,-29.300001 -7.6,-40.700001 -7.3,-14.8 -18.3,-24.3 -35.2,-30.5 l -5.8,-2.1 -141.5,0.4 c -342.4,1 -1433.60003,0 -1674.50003,-1.5 -2.7,0 -7,0.1 -9.5,0.3 -11.2,0.7 -535.3,-1.4 -558.5,-2.3 -6.6,-0.2 -17.800003,0 -25.000003,0.5 z m 138.000003,27.7 c 159.2,0.7 177.4,0.7 189,0.5 2.8,-0.1 36.1,-0.1 74,0 62.2,0.2 383.7,0.6 404.5,0.6 4.7,0 115.20003,0.2 245.50003,0.5 359,0.8 893,1.7 1137,1.8 174.5,0.1 218.5,0.4 220.6,1.4 6.3,3.1 13,9.6 16.1,15.7 l 3.3,6.2 V 368.48679 c 0,159 -0.4,289.5 -0.8,290 -0.5,0.4 -33.8,0.8 -74,0.8 -40.3,0 -425.3,0.4 -855.7,0.8 -430.4,0.5 -934.60003,1 -1120.50003,1.2 -185.9,0.1 -354.2,0.4 -374.100003,0.5 -24.6,0.2 -36.7,-0.1 -38.1,-0.8 -3.1,-1.7 -3.3,-5.7 -2.7,-39.2 0.6,-36.8 1.6,-211.2 1.2,-226 -0.2,-5.8 -0.3,-14.3 -0.3,-19 0.1,-32.1 0.3,-182.6 0.3,-187 -0.1,-15.1 -0.1,-49.2 0,-54 0.1,-3 0.1,-15.2 0.1,-27.1 -0.1,-28.400001 0.9,-35.100001 6.7,-43.000001 4.5,-6 5.7,-7 13.4,-11 l 4.6,-2.4 h 39.900003 c 22,0.1 71.5,0.2 110,0.3 z M 2510.5519,689.78679 c 1.3,1.1 1.5,34.5 1.5,287.4 v 286.10001 l -2.9,6 c -3.4,7.1 -9.8,13.6 -16.1,16.3 -5.1,2.2 10,2.2 -726.5,4.2 -187,0.5 -398.3,1.2 -469.5,1.5 -71.2,0.4 -258,1 -415.00003,1.5 -157,0.5 -355.5,1.1 -441,1.4 -85.5,0.3 -205,0.7 -265.5,0.8 l -110.000003,0.3 -6,-4.6 c -7.9,-6.2 -11,-9.5 -13.2,-14.4 -1.7,-3.8 -1.8,-11.1 -1.5,-150 0.2,-80.3 0.5,-210.20001 0.6,-288.60001 0.2,-98.6 0.7,-143.2 1.4,-144.5 1,-1.9 6.7,-1.9 273.900003,-2 643.8,-0.3 2127.20003,-1.9 2127.60003,-2.4 0.3,-0.3 14.1,-0.4 30.6,-0.4 22.4,0.1 30.5,0.5 31.6,1.4 z"
     inkscape:connector-curvature="0" />
</svg>
